<?xml version="1.0" encoding="UTF-8"?>
<svg id="Layer_2" data-name="Layer 2" xmlns="http://www.w3.org/2000/svg" viewBox="0 0 124.73 206.36">
  <defs>
    <style>
      .cls-1 {
        fill: #c3a7ef;
      }
    </style>
  </defs>
  <g id="Layer_1-2" data-name="Layer 1">
    <g>
      <path class="cls-1" d="M7.58,195.41c-.11-.82-.87-1.41-1.68-1.29-.83,.11-1.65,.21-2.48,.32,.08-.17,.16-.35,.25-.52l.81-1.65c.37-.74,.06-1.64-.68-2.01-.74-.37-1.64-.06-2.01,.68l-.81,1.65c-.51,1.03-.98,2.15-.98,3.32,0,.19,.01,.37,.04,.55,.1,.75,.75,1.3,1.48,1.3,.07,0,.13,0,.2-.01,.33-.04,.61-.19,.83-.4,.18,.08,.38,.13,.59,.13,.06,0,.12,0,.18-.01,.99-.12,1.98-.25,2.96-.38,.82-.11,1.4-.86,1.29-1.68Z"/>
      <path class="cls-1" d="M74.59,113.47l.25,.05c1.61,.33,3.27,.54,4.93,.63,.03,0,.05,0,.08,0,.79,0,1.45-.62,1.5-1.42,.04-.83-.59-1.53-1.42-1.58-1.51-.08-3.02-.27-4.49-.57l-.23-.05c-.81-.17-1.61,.35-1.78,1.16-.17,.81,.35,1.61,1.16,1.78Z"/>
      <path class="cls-1" d="M101.69,104.83c-1.35,.89-2.75,1.7-4.17,2.42-.74,.37-1.04,1.27-.67,2.01,.26,.52,.79,.83,1.34,.83,.23,0,.46-.05,.67-.16,1.52-.77,3.03-1.64,4.48-2.59,.69-.46,.88-1.39,.43-2.08-.46-.69-1.39-.88-2.08-.43Z"/>
      <path class="cls-1" d="M87.29,59.96c1.57,.34,3.1,.8,4.56,1.37,.18,.07,.36,.1,.54,.1,.6,0,1.17-.36,1.4-.96,.3-.77-.08-1.64-.86-1.94-1.6-.62-3.29-1.13-5.01-1.5-.81-.18-1.61,.33-1.79,1.15-.18,.81,.34,1.61,1.15,1.79Z"/>
      <path class="cls-1" d="M96.46,5.99c.29,.29,.68,.44,1.06,.44s.77-.15,1.06-.44c.58-.59,.58-1.54,0-2.12-1.2-1.2-2.45-2.37-3.7-3.48-.62-.55-1.57-.49-2.12,.13-.55,.62-.49,1.57,.13,2.12,1.21,1.08,2.42,2.21,3.58,3.37Z"/>
      <path class="cls-1" d="M50.94,81.88c.05,0,.1,0,.15,0,.76,0,1.41-.58,1.49-1.35,.16-1.56,.48-3.1,.97-4.56,.26-.79-.17-1.63-.96-1.89-.79-.26-1.63,.17-1.89,.96-.55,1.68-.92,3.42-1.1,5.2-.08,.82,.52,1.56,1.34,1.64Z"/>
      <path class="cls-1" d="M13.02,196.1c.08,0,.16,0,.24-.02,1.66-.26,3.31-.54,4.96-.84,.82-.15,1.36-.93,1.21-1.74-.15-.82-.93-1.35-1.74-1.21-1.63,.29-3.26,.57-4.9,.83-.82,.13-1.38,.9-1.25,1.72,.12,.74,.75,1.26,1.48,1.26Z"/>
      <path class="cls-1" d="M64.29,63.03c.24,0,.48-.06,.7-.18,1.37-.73,2.84-1.37,4.36-1.89,.78-.27,1.2-1.12,.93-1.91-.27-.78-1.12-1.2-1.91-.93-1.67,.57-3.29,1.27-4.8,2.08-.73,.39-1.01,1.3-.62,2.03,.27,.51,.79,.79,1.32,.79Z"/>
      <path class="cls-1" d="M54.41,70.51c.26,.19,.57,.28,.87,.28,.47,0,.93-.22,1.22-.63,.9-1.25,1.94-2.43,3.1-3.51,.61-.56,.65-1.51,.09-2.12s-1.51-.65-2.12-.09c-1.31,1.21-2.5,2.55-3.51,3.97-.48,.67-.33,1.61,.35,2.09Z"/>
      <path class="cls-1" d="M75.68,59.48c.06,0,.13,0,.19-.01,1.42-.18,2.86-.27,4.29-.27h.49c.82,0,1.51-.65,1.52-1.48,.01-.83-.65-1.51-1.48-1.52h-.53c-1.56,0-3.13,.1-4.67,.29-.82,.1-1.4,.85-1.3,1.68,.1,.76,.74,1.31,1.49,1.31Z"/>
      <path class="cls-1" d="M114.87,88c.15,0,.29-.02,.44-.07,.79-.24,1.24-1.08,.99-1.87-.5-1.65-1.09-3.28-1.74-4.84-.32-.77-1.2-1.13-1.96-.81-.77,.32-1.13,1.2-.81,1.96,.61,1.47,1.16,3.01,1.64,4.57,.2,.65,.79,1.06,1.43,1.06Z"/>
      <path class="cls-1" d="M115.89,35.29c.24,.58,.8,.94,1.39,.94,.19,0,.38-.04,.56-.11,.77-.31,1.14-1.19,.83-1.95-.63-1.56-1.32-3.13-2.04-4.66-.35-.75-1.25-1.07-2-.72-.75,.35-1.07,1.25-.72,2,.7,1.48,1.36,2.99,1.97,4.5Z"/>
      <path class="cls-1" d="M118.22,41.76l.26,.83c.39,1.29,.75,2.6,1.07,3.89,.17,.68,.78,1.14,1.46,1.14,.12,0,.24-.01,.36-.04,.8-.2,1.29-1.01,1.1-1.82-.33-1.34-.71-2.71-1.11-4.04l-.27-.86c-.25-.79-1.09-1.23-1.88-.98-.79,.25-1.23,1.09-.98,1.88Z"/>
      <path class="cls-1" d="M122.15,51.5c-.82,.13-1.38,.89-1.25,1.71,.25,1.62,.45,3.26,.58,4.86,.07,.78,.72,1.37,1.49,1.37,.04,0,.09,0,.13,0,.83-.07,1.44-.8,1.37-1.62-.14-1.67-.35-3.38-.61-5.06-.13-.82-.89-1.38-1.71-1.25Z"/>
      <path class="cls-1" d="M106.04,72.34c.96,1.25,1.88,2.59,2.72,3.98,.28,.47,.78,.73,1.29,.73,.26,0,.53-.07,.77-.21,.71-.43,.94-1.35,.51-2.06-.9-1.49-1.88-2.93-2.91-4.27-.51-.66-1.45-.78-2.1-.27-.66,.51-.78,1.45-.27,2.1Z"/>
      <path class="cls-1" d="M110.4,97.22c-1.05,1.21-2.19,2.37-3.37,3.45-.61,.56-.65,1.51-.09,2.12,.3,.32,.7,.49,1.11,.49,.36,0,.72-.13,1.01-.39,1.27-1.16,2.48-2.4,3.61-3.7,.54-.62,.48-1.57-.14-2.12-.62-.54-1.57-.48-2.12,.14Z"/>
      <path class="cls-1" d="M104.23,14.86c.3,.39,.74,.59,1.19,.59,.32,0,.64-.1,.91-.31,.66-.5,.78-1.44,.28-2.1-1.03-1.34-2.1-2.67-3.2-3.95-.54-.63-1.49-.7-2.12-.16-.63,.54-.7,1.49-.16,2.12,1.06,1.24,2.1,2.52,3.09,3.82Z"/>
      <path class="cls-1" d="M97.33,62.34c-.47,.68-.29,1.62,.39,2.08,1.31,.9,2.57,1.9,3.76,2.97,.29,.26,.65,.39,1.01,.39,.41,0,.82-.17,1.11-.49,.56-.61,.51-1.56-.1-2.12-1.29-1.17-2.66-2.25-4.08-3.22-.68-.47-1.62-.29-2.08,.39Z"/>
      <path class="cls-1" d="M110.75,24.68c.28,.48,.78,.76,1.3,.76,.25,0,.51-.06,.74-.2,.72-.41,.97-1.33,.56-2.05-.83-1.46-1.72-2.92-2.64-4.34-.45-.69-1.38-.89-2.07-.44-.7,.45-.89,1.38-.44,2.07,.89,1.37,1.75,2.79,2.55,4.2Z"/>
      <path class="cls-1" d="M116.19,115.69c-.81-.17-1.61,.34-1.78,1.15-.34,1.58-.74,3.18-1.19,4.75-.23,.8,.23,1.63,1.03,1.86,.14,.04,.28,.06,.42,.06,.65,0,1.25-.43,1.44-1.09,.47-1.63,.89-3.3,1.24-4.95,.17-.81-.34-1.61-1.15-1.78Z"/>
      <path class="cls-1" d="M82.85,165.31c-1.27,1.02-2.59,2.02-3.92,2.99-.67,.49-.82,1.42-.33,2.09,.29,.4,.75,.62,1.22,.62,.3,0,.61-.09,.88-.29,1.37-.99,2.72-2.03,4.03-3.08,.65-.52,.75-1.46,.23-2.11-.52-.65-1.46-.75-2.11-.23Z"/>
      <path class="cls-1" d="M112.96,127.23c-.77-.3-1.64,.08-1.94,.85-.59,1.51-1.24,3.02-1.93,4.51-.35,.75-.02,1.64,.73,1.99,.2,.1,.42,.14,.63,.14,.56,0,1.11-.32,1.36-.87,.72-1.54,1.39-3.12,2-4.68,.3-.77-.08-1.64-.85-1.94Z"/>
      <path class="cls-1" d="M107.97,138.13c-.72-.41-1.64-.16-2.05,.56-.8,1.4-1.67,2.81-2.56,4.19-.45,.69-.26,1.62,.44,2.08,.25,.16,.54,.24,.82,.24,.49,0,.97-.24,1.26-.68,.93-1.43,1.82-2.89,2.65-4.34,.41-.72,.16-1.64-.56-2.05Z"/>
      <path class="cls-1" d="M91.63,157.39c-1.14,1.16-2.33,2.31-3.54,3.42-.61,.56-.65,1.51-.09,2.12,.3,.32,.7,.48,1.1,.48,.36,0,.73-.13,1.01-.4,1.25-1.15,2.47-2.33,3.65-3.52,.58-.59,.57-1.54-.02-2.12-.59-.58-1.54-.58-2.12,.02Z"/>
      <path class="cls-1" d="M93.14,110.75c-.24-.79-1.08-1.24-1.87-1.01-1.55,.46-3.12,.82-4.67,1.06-.82,.13-1.38,.89-1.25,1.71,.12,.74,.75,1.27,1.48,1.27,.08,0,.15,0,.23-.02,1.69-.26,3.39-.65,5.07-1.15,.79-.24,1.24-1.07,1.01-1.87Z"/>
      <path class="cls-1" d="M101.49,148.21c-.66-.5-1.6-.38-2.1,.28-.99,1.29-2.03,2.58-3.1,3.82-.54,.63-.46,1.58,.17,2.11,.28,.24,.63,.36,.97,.36,.42,0,.84-.18,1.14-.53,1.1-1.28,2.17-2.61,3.2-3.95,.5-.66,.38-1.6-.28-2.1Z"/>
      <path class="cls-1" d="M122.21,75.38c-.81-.17-1.61,.34-1.78,1.15-.34,1.6-.76,3.18-1.24,4.7-.25,.79,.19,1.63,.98,1.88,.15,.05,.3,.07,.45,.07,.64,0,1.23-.41,1.43-1.05,.51-1.61,.95-3.28,1.31-4.97,.17-.81-.34-1.61-1.15-1.78Z"/>
      <path class="cls-1" d="M117.4,103.76c-.86-.03-1.52,.63-1.54,1.46-.04,1.48-.14,2.97-.29,4.43l-.05,.43c-.09,.82,.5,1.57,1.32,1.66,.06,0,.11,0,.17,0,.75,0,1.4-.57,1.49-1.33l.05-.46c.16-1.54,.27-3.1,.31-4.66,.02-.83-.63-1.52-1.46-1.54Z"/>
      <path class="cls-1" d="M123.25,63.44c-.87-.02-1.51,.65-1.52,1.48-.03,1.64-.11,3.28-.26,4.87-.08,.82,.53,1.56,1.35,1.63,.05,0,.1,0,.14,0,.76,0,1.42-.58,1.49-1.36,.16-1.67,.25-3.39,.28-5.11,.01-.83-.65-1.51-1.48-1.52Z"/>
      <path class="cls-1" d="M118.71,86.84c-.75-.36-1.64-.04-2,.71-.4,.85-.83,1.69-1.28,2.49-.33,.59-.67,1.18-1.03,1.75-.44,.7-.22,1.63,.48,2.06,.06,.04,.12,.07,.19,.1,.24,1.46,.43,2.95,.56,4.43,.07,.78,.72,1.37,1.49,1.37,.04,0,.09,0,.13,0,.83-.07,1.44-.8,1.36-1.63-.15-1.7-.37-3.41-.67-5.08-.05-.29-.18-.55-.37-.75,.16-.27,.31-.54,.46-.81,.47-.86,.93-1.75,1.36-2.65,.36-.75,.04-1.64-.71-2Z"/>
      <path class="cls-1" d="M62.88,177.96c-1.45,.73-2.95,1.44-4.46,2.13-.75,.34-1.09,1.23-.75,1.99,.25,.55,.8,.88,1.37,.88,.21,0,.42-.04,.62-.13,1.54-.7,3.08-1.43,4.56-2.18,.74-.37,1.04-1.27,.67-2.01s-1.27-1.04-2.01-.67Z"/>
      <path class="cls-1" d="M40.83,186.72c-1.56,.48-3.16,.95-4.76,1.4-.8,.22-1.27,1.05-1.04,1.85,.18,.66,.79,1.1,1.44,1.1,.13,0,.27-.02,.4-.06,1.62-.45,3.25-.93,4.84-1.42,.79-.25,1.23-1.08,.99-1.88-.25-.79-1.09-1.23-1.88-.99Z"/>
      <path class="cls-1" d="M52.04,182.79c-1.51,.6-3.07,1.18-4.63,1.74-.78,.28-1.19,1.14-.91,1.92,.22,.61,.8,1,1.41,1,.17,0,.34-.03,.5-.09,1.6-.57,3.19-1.17,4.73-1.78,.77-.3,1.15-1.18,.84-1.95-.3-.77-1.18-1.15-1.95-.84Z"/>
      <path class="cls-1" d="M52.86,87.1c-.15-.82-.93-1.36-1.74-1.21-.82,.15-1.36,.93-1.21,1.74,.31,1.7,.77,3.4,1.39,5.07,.22,.61,.8,.98,1.41,.98,.17,0,.35-.03,.52-.09,.78-.29,1.17-1.15,.89-1.93-.55-1.5-.98-3.04-1.25-4.56Z"/>
      <path class="cls-1" d="M29.35,189.85c-1.61,.38-3.22,.75-4.84,1.09-.81,.17-1.33,.97-1.15,1.78,.15,.71,.77,1.19,1.47,1.19,.1,0,.21-.01,.31-.03,1.64-.35,3.28-.72,4.91-1.11,.81-.19,1.3-1,1.11-1.81-.19-.81-1-1.3-1.81-1.11Z"/>
      <path class="cls-1" d="M58.88,103.89c.35,0,.71-.13,1-.38,.62-.55,.67-1.5,.12-2.12-1.06-1.19-2.03-2.46-2.9-3.79-.45-.69-1.38-.89-2.08-.44-.69,.45-.89,1.38-.44,2.08,.94,1.45,2.01,2.85,3.17,4.15,.3,.33,.71,.5,1.12,.5Z"/>
      <path class="cls-1" d="M73.21,172.16c-1.38,.87-2.81,1.72-4.23,2.54-.72,.41-.97,1.33-.56,2.05,.28,.48,.78,.76,1.3,.76,.25,0,.51-.06,.74-.2,1.46-.84,2.92-1.71,4.34-2.61,.7-.44,.91-1.37,.47-2.07s-1.37-.91-2.07-.47Z"/>
      <path class="cls-1" d="M69.66,110.35c.37-.74,.07-1.64-.67-2.01-1.4-.7-2.76-1.53-4.06-2.47-.67-.49-1.61-.34-2.09,.33-.49,.67-.34,1.61,.33,2.09,1.43,1.04,2.93,1.95,4.48,2.73,.22,.11,.44,.16,.67,.16,.55,0,1.08-.3,1.34-.83Z"/>
      <path class="cls-1" d="M20.73,203.45l-1.87-.71c-.77-.29-1.64,.1-1.93,.87-.29,.77,.1,1.64,.87,1.93l1.87,.71c.18,.07,.35,.1,.53,.1,.61,0,1.18-.37,1.4-.97,.29-.77-.1-1.64-.87-1.93Z"/>
      <path class="cls-1" d="M12.32,200.27l-4.68-1.77c-.78-.29-1.64,.1-1.93,.87-.29,.77,.1,1.64,.87,1.93l4.68,1.77c.17,.07,.35,.1,.53,.1,.61,0,1.18-.37,1.4-.97,.29-.77-.1-1.64-.87-1.93Z"/>
      <path class="cls-1" d="M5.57,186.67c.21,.11,.44,.16,.66,.16,.55,0,1.08-.31,1.35-.84l2.21-4.48c.37-.74,.06-1.64-.68-2.01-.74-.37-1.64-.06-2.01,.68l-2.21,4.48c-.37,.74-.06,1.64,.68,2.01Z"/>
    </g>
  </g>
</svg>